Coordinates
version=1
nRows=7
nColumns=33
inDegrees=yes

Units are S.I. units (second, meters, Newtons, ...)
Angles are in degrees.

endheader
time	ground_thorax_rot_x	ground_thorax_rot_y	ground_thorax_rot_z	ground_thorax_tx	ground_thorax_ty	ground_thorax_tz	clav_prot_r	clav_elev_r	scapula_abduction_r	scapula_elevation_r	scapula_upward_rot_r	scapula_winging_r	shoulder_elv_r	plane_of_elev_r	axial_rot_r	elbow_flexion_r	pro_sup_r	wrist_flex_r	wrist_dev_r	clav_prot_l	clav_elev_l	scapula_abduction_l	scapula_elevation_l	scapula_upward_rot_l	scapula_winging_l	shoulder_elv_l	plane_of_elev_l	axial_rot_l	elbow_flexion_l	pro_sup_l	wrist_flex_l	wrist_dev_l
      3.52000000	     40.48848697	      7.61867134	      3.40170294	    -61.19527746	    786.10340953	      1.99985553	     15.05045770	     42.80047363	     45.00000000	     43.38997322	    -20.27725995	  -1880.13546411	  -2993.81517489	    145.87226941	   -161.42560573	    727.34862744	     32.70528579	     16.82497570	     13.20100950	      6.95857228	    -45.00000000	    -45.00000000	     45.00000000	    -12.29232348	   1523.55135902	  -1538.32015645	    132.54614797	   -149.82094126	   1081.50639543	     41.13551450	     12.84088082	    -20.19189523
      3.53000000	     40.51800082	      7.66684024	      3.62975711	    -60.75662701	    786.20049699	      2.14480069	     15.09281903	     43.22408998	     45.00000000	     43.65694297	    -21.12881666	  -1879.65512641	  -2993.63450027	    145.81063878	   -162.47691022	    727.09106771	     32.24406441	     17.11427203	     13.48228748	      6.62349648	    -45.00000000	    -45.00000000	     45.00000000	    -12.25883010	   1523.41851835	  -1538.41426133	    132.73242310	   -149.82356375	   1081.25525253	     41.03745889	     12.72506517	    -20.17330599
      3.54000000	     40.48783763	      7.38713515	      3.55090062	    -60.49469541	    786.33648897	      2.32036786	     15.39953620	     42.71941992	     45.00000000	     43.51411136	    -21.12601173	  -1879.76441035	  -2993.49549912	    145.55075361	   -163.33627913	    727.12197521	     31.92168485	     16.83172131	     13.43195798	      6.77572246	    -45.00000000	    -45.00000000	     45.00000000	    -12.12912841	   1523.64826662	  -1538.31798832	    132.47358469	   -149.78299714	   1081.26133227	     40.96498540	     12.82454432	    -20.07900472
      3.55000000	     40.52959335	      7.38918723	      3.66250428	    -60.41365498	    786.51728094	      2.51914225	     15.14839512	     43.13004705	     45.00000000	     43.62112119	    -21.30273688	  -1879.68060266	  -2993.35551233	    145.74289459	   -163.69388145	    727.26812940	     31.73184498	     17.10742855	     13.63123187	      6.57873042	    -45.00000000	    -45.00000000	     45.00000000	    -11.86312643	   1523.52308821	  -1538.41519426	    132.73540338	   -149.55868493	   1081.20536380	     40.84652783	     12.74930875	    -20.09230110
      3.56000000	     40.47632649	      6.93792308	      3.40934282	    -60.51376711	    786.74212137	      2.73215962	     15.39830049	     42.68606356	     45.00000000	     43.51497128	    -21.10477394	  -1879.96259172	  -2993.36271913	    145.32737847	   -163.95402777	    727.22165717	     31.59055809	     16.92146200	     13.50963150	      6.64494967	    -45.00000000	    -45.00000000	     45.00000000	    -11.77634023	   1523.89073733	  -1538.11040748	    132.21889976	   -149.53253726	   1081.18078045	     40.77027889	     12.80161320	    -20.03532492
      3.57000000	     40.62544381	      6.87743154	      3.62811598	    -60.79715103	    787.01680756	      2.95547204	     15.07236997	     42.96142973	     45.00000000	     43.92765494	    -21.18339393	  -1879.64793191	  -2993.42909233	    145.63512651	   -163.99677808	    727.23768695	     31.44534561	     17.11344272	     13.71656283	      6.47050429	    -45.00000000	    -45.00000000	     45.00000000	    -11.61239127	   1523.71072249	  -1538.29320486	    132.68957726	   -149.27809413	   1080.99665777	     40.63613089	     12.76665921	    -20.04255792
      3.58000000	     40.54533930	      6.66337573	      3.65919402	    -61.26601072	    787.34022163	      3.17887897	     15.17454345	     42.71130677	     45.00000000	     43.71009980	    -20.98265170	  -1879.94701656	  -2993.33194440	    145.47172081	   -164.07536038	    727.28270972	     31.23370340	     17.07364868	     13.63020024	      6.46547943	    -45.00000000	    -45.00000000	     45.00000000	    -11.53034154	   1523.96300378	  -1538.05323244	    132.44618097	   -149.27519288	   1080.86936088	     40.49698967	     12.77368269	    -20.03295407
